{
  "source": "C:\\Users\\Peter\\Desktop\\stuff\\MIUN\\quantitative_research\\video_compression\\videos\\BVI-HD\\BVI-HD_CDVL_videos\\ORIG\\BubblesPitcher_1920x1080_60fps.mp4",
  "output": "C:\\Users\\Peter\\Desktop\\stuff\\MIUN\\quantitative_research\\video_compression\\compressed_videos\\BVI-HD\\av1\\4\\BubblesPitcher_1920x1080_60fps_av1.mkv",
  "codec": "av1",
  "ok": "Input #0, mov,mp4,m4a,3gp,3g2,mj2, from 'C:\\Users\\Peter\\Desktop\\stuff\\MIUN\\quantitative_research\\video_compression\\videos\\BVI-HD\\BVI-HD_CDVL_videos\\ORIG\\BubblesPitcher_1920x1080_60fps.mp4':\n  Metadata:\n    major_brand     : isom\n    minor_version   : 512\n    compatible_brands: isomiso2avc1mp41\n    encoder         : Lavf54.28.101\n  Duration: 00:00:05.00, start: 0.000000, bitrate: 188849 kb/s\n  Stream #0:0[0x1](und): Video: h264 (High 4:4:4 Predictive) (avc1 / 0x31637661), yuv420p(progressive), 1920x1080, 188844 kb/s, 60 fps, 60 tbr, 60 tbn (default)\n    Metadata:\n      handler_name    : VideoHandler\n      vendor_id       : [0][0][0][0]\n[out#0/matroska @ 0000020adfdfcd80] Codec AVOption b:a (set bitrate (in bits/s)) has not been used for any stream. The most likely reason is either wrong type (e.g. a video option with no video streams) or that it is a private option of some decoder which was not actually used for any stream.\nStream mapping:\n  Stream #0:0 -> #0:0 (h264 (native) -> av1 (libsvtav1))\nPress [q] to stop, [?] for help\nSvt[info]: -------------------------------------------\nSvt[info]: SVT [version]:\tSVT-AV1 Encoder Lib v3.1.0-19-g6ecfe8ec\nSvt[info]: SVT [build]  :\tGCC 15.2.0\t 64 bit\nSvt[info]: LIB Build date: Aug 17 2025 11:37:13\nSvt[info]: -------------------------------------------\nSvt[info]: Level of Parallelism: 5\nSvt[info]: Number of PPCS 93\nSvt[info]: [asm level on system : up to avx2]\nSvt[info]: [asm level selected : up to avx2]\nSvt[info]: -------------------------------------------\nSvt[info]: SVT [config]: main profile\ttier (auto)\tlevel (auto)\nSvt[info]: SVT [config]: width / height / fps numerator / fps denominator \t\t: 1920 / 1080 / 60 / 1\nSvt[info]: SVT [config]: bit-depth / color format \t\t\t\t\t: 8 / YUV420\nSvt[info]: SVT [config]: preset / tune / pred struct \t\t\t\t\t: 4 / PSNR / random access\nSvt[info]: SVT [config]: gop size / mini-gop size / key-frame type \t\t\t: 321 / 16 / key frame\nSvt[info]: SVT [config]: BRC mode / target bitrate (kbps)\t\t\t\t: VBR / 4000 \nSvt[info]: SVT [config]: AQ mode / Variance Boost \t\t\t\t\t: 2 / 0\nSvt[info]: SVT [config]: sharpness / luminance-based QP bias \t\t\t\t: 0 / 0\nSvt[info]: SVT [config]: QP scale compress strength \t\t\t\t\t: 0\nSvt[info]: -------------------------------------------\nOutput #0, matroska, to 'C:\\Users\\Peter\\Desktop\\stuff\\MIUN\\quantitative_research\\video_compression\\compressed_videos\\BVI-HD\\av1\\4\\BubblesPitcher_1920x1080_60fps_av1.mkv':\n  Metadata:\n    major_brand     : isom\n    minor_version   : 512\n    compatible_brands: isomiso2avc1mp41\n    encoder         : Lavf62.3.100\n  Stream #0:0(und): Video: av1 (AV01 / 0x31305641), yuv420p(tv, progressive), 1920x1080, q=2-31, 4000 kb/s, 60 fps, 1k tbn (default)\n    Metadata:\n      encoder         : Lavc62.11.100 libsvtav1\n      handler_name    : VideoHandler\n      vendor_id       : [0][0][0][0]\n    Side data:\n      cpb: bitrate max/min/avg: 0/0/4000000 buffer size: 4000000 vbv_delay: N/A\nframe=    0 fps=0.0 q=0.0 size=       0KiB time=N/A bitrate=N/A speed=N/A elapsed=0:00:01.04    \nframe=    0 fps=0.0 q=0.0 size=       0KiB time=N/A bitrate=N/A speed=N/A elapsed=0:00:01.62    \nframe=    0 fps=0.0 q=0.0 size=       0KiB time=N/A bitrate=N/A speed=N/A elapsed=0:00:02.17    \nframe=    0 fps=0.0 q=0.0 size=       0KiB time=N/A bitrate=N/A speed=N/A elapsed=0:00:02.68    \nframe=    0 fps=0.0 q=0.0 size=       0KiB time=N/A bitrate=N/A speed=N/A elapsed=0:00:03.19    \nframe=    0 fps=0.0 q=0.0 size=       0KiB time=N/A bitrate=N/A speed=N/A elapsed=0:00:03.71    \nframe=    0 fps=0.0 q=0.0 size=       0KiB time=N/A bitrate=N/A speed=N/A elapsed=0:00:04.24    \nframe=    0 fps=0.0 q=0.0 size=       0KiB time=N/A bitrate=N/A speed=N/A elapsed=0:00:04.78    \nframe=    0 fps=0.0 q=0.0 size=       0KiB time=N/A bitrate=N/A speed=N/A elapsed=0:00:05.29    \nframe=    0 fps=0.0 q=0.0 size=       0KiB time=N/A bitrate=N/A speed=N/A elapsed=0:00:05.82    \nframe=    0 fps=0.0 q=0.0 size=       0KiB time=N/A bitrate=N/A speed=N/A elapsed=0:00:06.34    \nframe=    0 fps=0.0 q=0.0 size=       0KiB time=N/A bitrate=N/A speed=N/A elapsed=0:00:06.88    \nframe=    1 fps=0.1 q=3.0 size=       1KiB time=00:00:00.00 bitrate=N/A speed=   0x elapsed=0:00:07.43    \nframe=    2 fps=0.2 q=30.0 size=       1KiB time=00:00:00.01 bitrate= 341.8kbits/s speed=0.00208x elapsed=0:00:08.02    \nframe=    5 fps=0.6 q=24.0 size=       1KiB time=00:00:00.06 bitrate=  85.4kbits/s speed=0.00775x elapsed=0:00:08.60    \nframe=    8 fps=0.9 q=27.0 size=       1KiB time=00:00:00.11 bitrate=  48.8kbits/s speed=0.0127x elapsed=0:00:09.18    \nframe=   12 fps=1.2 q=23.0 size=       1KiB time=00:00:00.16 bitrate=  34.2kbits/s speed=0.017x elapsed=0:00:09.82    \nframe=   15 fps=1.4 q=22.0 size=       1KiB time=00:00:00.23 bitrate=  24.4kbits/s speed=0.0224x elapsed=0:00:10.43    \nframe=   18 fps=1.6 q=23.0 size=       1KiB time=00:00:00.26 bitrate=  21.4kbits/s speed=0.0241x elapsed=0:00:11.04    \nframe=   22 fps=1.9 q=21.0 size=       1KiB time=00:00:00.35 bitrate=  16.3kbits/s speed=0.03x elapsed=0:00:11.66    \nframe=   23 fps=1.9 q=24.0 size=       1KiB time=00:00:00.36 bitrate=  15.5kbits/s speed=0.03x elapsed=0:00:12.23    \nframe=   25 fps=2.0 q=19.0 size=       1KiB time=00:00:00.40 bitrate=  14.2kbits/s speed=0.0313x elapsed=0:00:12.79    \nframe=   28 fps=2.1 q=19.0 size=       1KiB time=00:00:00.45 bitrate=  12.7kbits/s speed=0.0336x elapsed=0:00:13.39    \nframe=   31 fps=2.2 q=24.0 size=       1KiB time=00:00:00.50 bitrate=  11.4kbits/s speed=0.0359x elapsed=0:00:13.91    \nframe=   35 fps=2.4 q=21.0 size=       1KiB time=00:00:00.51 bitrate=  11.0kbits/s speed=0.0358x elapsed=0:00:14.44    \nframe=   37 fps=2.5 q=20.0 size=       1KiB time=00:00:00.60 bitrate=   9.5kbits/s speed=0.0398x elapsed=0:00:15.08    \nframe=   38 fps=2.4 q=19.0 size=       1KiB time=00:00:00.61 bitrate=   9.2kbits/s speed=0.0392x elapsed=0:00:15.72    \nframe=   40 fps=2.5 q=20.0 size=       1KiB time=00:00:00.63 bitrate=   9.0kbits/s speed=0.0389x elapsed=0:00:16.29    \nframe=   42 fps=2.5 q=26.0 size=       1KiB time=00:00:00.68 bitrate=   8.3kbits/s speed=0.0404x elapsed=0:00:16.93    \nframe=   45 fps=2.6 q=22.0 size=       1KiB time=00:00:00.73 bitrate=   7.8kbits/s speed=0.0418x elapsed=0:00:17.52    \nframe=   47 fps=2.6 q=24.0 size=       1KiB time=00:00:00.76 bitrate=   7.4kbits/s speed=0.0424x elapsed=0:00:18.07    \nframe=   51 fps=2.7 q=25.0 size=       1KiB time=00:00:00.81 bitrate=   7.0kbits/s speed=0.0438x elapsed=0:00:18.65    \nframe=   52 fps=2.7 q=25.0 size=       1KiB time=00:00:00.85 bitrate=   6.7kbits/s speed=0.0442x elapsed=0:00:19.24    \nframe=   53 fps=2.7 q=23.0 size=       1KiB time=00:00:00.86 bitrate=   6.6kbits/s speed=0.0436x elapsed=0:00:19.87    \nframe=   56 fps=2.7 q=26.0 size=       1KiB time=00:00:00.91 bitrate=   6.2kbits/s speed=0.0448x elapsed=0:00:20.47    \nframe=   59 fps=2.8 q=25.0 size=       1KiB time=00:00:00.96 bitrate=   5.9kbits/s speed=0.0458x elapsed=0:00:21.09    \nframe=   63 fps=2.9 q=25.0 size=       1KiB time=00:00:01.03 bitrate=   5.5kbits/s speed=0.0476x elapsed=0:00:21.72    \nframe=   66 fps=3.0 q=26.0 size=       1KiB time=00:00:01.08 bitrate=   5.3kbits/s speed=0.0486x elapsed=0:00:22.28    \nframe=   68 fps=3.0 q=26.0 size=       1KiB time=00:00:01.11 bitrate=   5.1kbits/s speed=0.0489x elapsed=0:00:22.83    \nframe=   70 fps=3.0 q=25.0 size=       1KiB time=00:00:01.15 bitrate=   5.0kbits/s speed=0.0491x elapsed=0:00:23.44    \nframe=   75 fps=3.1 q=27.0 size=       1KiB time=00:00:01.23 bitrate=   4.6kbits/s speed=0.0514x elapsed=0:00:23.99    \nframe=   79 fps=3.2 q=28.0 size=       1KiB time=00:00:01.30 bitrate=   4.4kbits/s speed=0.053x elapsed=0:00:24.55    \nframe=   84 fps=3.3 q=26.0 size=       1KiB time=00:00:01.38 bitrate=   4.1kbits/s speed=0.0551x elapsed=0:00:25.12    \nframe=   85 fps=3.3 q=27.0 size=       1KiB time=00:00:01.40 bitrate=   4.1kbits/s speed=0.0543x elapsed=0:00:25.79    \nframe=   89 fps=3.4 q=13.0 size=       1KiB time=00:00:01.46 bitrate=   3.9kbits/s speed=0.0554x elapsed=0:00:26.45    \nframe=   93 fps=3.4 q=26.0 size=       1KiB time=00:00:01.53 bitrate=   3.7kbits/s speed=0.0568x elapsed=0:00:26.99    \nframe=   98 fps=3.6 q=30.0 size=       1KiB time=00:00:01.61 bitrate=   3.5kbits/s speed=0.0588x elapsed=0:00:27.50    \nframe=  101 fps=3.6 q=30.0 size=       1KiB time=00:00:01.65 bitrate=   3.5kbits/s speed=0.0589x elapsed=0:00:28.03    \nframe=  103 fps=3.6 q=31.0 size=       1KiB time=00:00:01.70 bitrate=   3.4kbits/s speed=0.0591x elapsed=0:00:28.74    \nframe=  107 fps=3.6 q=31.0 size=       1KiB time=00:00:01.76 bitrate=   3.2kbits/s speed=0.0601x elapsed=0:00:29.37    \nframe=  113 fps=3.8 q=5.0 size=       1KiB time=00:00:01.86 bitrate=   3.1kbits/s speed=0.0624x elapsed=0:00:29.90    \nframe=  117 fps=3.8 q=30.0 size=       1KiB time=00:00:01.91 bitrate=   3.0kbits/s speed=0.0629x elapsed=0:00:30.46    \nframe=  118 fps=3.8 q=30.0 size=       1KiB time=00:00:01.95 bitrate=   2.9kbits/s speed=0.0627x elapsed=0:00:31.10    \nframe=  121 fps=3.8 q=21.0 size=       1KiB time=00:00:02.00 bitrate=   2.8kbits/s speed=0.063x elapsed=0:00:31.73    \nframe=  126 fps=3.9 q=29.0 size=       1KiB time=00:00:02.08 bitrate=   2.7kbits/s speed=0.0646x elapsed=0:00:32.27    \nframe=  131 fps=4.0 q=30.0 size=       1KiB time=00:00:02.16 bitrate=   2.6kbits/s speed=0.066x elapsed=0:00:32.81    \nframe=  133 fps=4.0 q=29.0 size=       1KiB time=00:00:02.18 bitrate=   2.6kbits/s speed=0.0655x elapsed=0:00:33.35    \nframe=  134 fps=3.9 q=33.0 size=       1KiB time=00:00:02.20 bitrate=   2.6kbits/s speed=0.0647x elapsed=0:00:33.98    \nframe=  137 fps=4.0 q=19.0 size=       1KiB time=00:00:02.26 bitrate=   2.5kbits/s speed=0.0654x elapsed=0:00:34.64    \nframe=  139 fps=4.0 q=36.0 size=       1KiB time=00:00:02.30 bitrate=   2.5kbits/s speed=0.0654x elapsed=0:00:35.17    \nframe=  146 fps=4.1 q=40.0 size=       1KiB time=00:00:02.41 bitrate=   2.4kbits/s speed=0.0677x elapsed=0:00:35.70    \nframe=  148 fps=4.1 q=40.0 size=       1KiB time=00:00:02.45 bitrate=   2.3kbits/s speed=0.0676x elapsed=0:00:36.23    \nframe=  149 fps=4.0 q=35.0 size=       1KiB time=00:00:02.46 bitrate=   2.3kbits/s speed=0.0669x elapsed=0:00:36.86    \nframe=  151 fps=4.0 q=38.0 size=       1KiB time=00:00:02.48 bitrate=   2.3kbits/s speed=0.0662x elapsed=0:00:37.50    \nframe=  154 fps=4.0 q=42.0 size=       1KiB time=00:00:02.55 bitrate=   2.2kbits/s speed=0.0668x elapsed=0:00:38.15    \nframe=  158 fps=4.1 q=43.0 size=       1KiB time=00:00:02.61 bitrate=   2.2kbits/s speed=0.0677x elapsed=0:00:38.67    \nframe=  162 fps=4.1 q=43.0 size=       1KiB time=00:00:02.68 bitrate=   2.1kbits/s speed=0.0685x elapsed=0:00:39.19    \nframe=  164 fps=4.1 q=43.0 size=       1KiB time=00:00:02.71 bitrate=   2.1kbits/s speed=0.0684x elapsed=0:00:39.72    \nframe=  165 fps=4.1 q=36.0 size=       1KiB time=00:00:02.73 bitrate=   2.1kbits/s speed=0.0677x elapsed=0:00:40.35    \nframe=  165 fps=4.0 q=36.0 size=       1KiB time=00:00:02.73 bitrate=   2.1kbits/s speed=0.0667x elapsed=0:00:40.97    \nframe=  168 fps=4.0 q=42.0 size=       1KiB time=00:00:02.78 bitrate=   2.0kbits/s speed=0.067x elapsed=0:00:41.53    \nframe=  171 fps=4.1 q=40.0 size=       1KiB time=00:00:02.83 bitrate=   2.0kbits/s speed=0.0674x elapsed=0:00:42.06    \nframe=  175 fps=4.1 q=40.0 size=       1KiB time=00:00:02.90 bitrate=   2.0kbits/s speed=0.0681x elapsed=0:00:42.60    \nframe=  178 fps=4.1 q=43.0 size=       1KiB time=00:00:02.95 bitrate=   1.9kbits/s speed=0.0684x elapsed=0:00:43.14    \nframe=  180 fps=4.1 q=43.0 size=       1KiB time=00:00:02.98 bitrate=   1.9kbits/s speed=0.0683x elapsed=0:00:43.68    \nframe=  181 fps=4.1 q=40.0 size=       1KiB time=00:00:03.00 bitrate=   1.9kbits/s speed=0.0677x elapsed=0:00:44.32    \nframe=  181 fps=4.0 q=40.0 size=       1KiB time=00:00:03.00 bitrate=   1.9kbits/s speed=0.0667x elapsed=0:00:44.96    \nframe=  184 fps=4.0 q=43.0 size=       1KiB time=00:00:03.05 bitrate=   1.9kbits/s speed=0.067x elapsed=0:00:45.49    \nframe=  187 fps=4.1 q=40.0 size=       1KiB time=00:00:03.10 bitrate=   1.8kbits/s speed=0.0674x elapsed=0:00:46.00    \nframe=  190 fps=4.1 q=44.0 size=       1KiB time=00:00:03.15 bitrate=   1.8kbits/s speed=0.0677x elapsed=0:00:46.52    \nframe=  193 fps=4.1 q=26.0 size=       1KiB time=00:00:03.20 bitrate=   1.8kbits/s speed=0.068x elapsed=0:00:47.04    \nframe=  195 fps=4.1 q=39.0 size=       1KiB time=00:00:03.23 bitrate=   1.8kbits/s speed=0.068x elapsed=0:00:47.57    \nframe=  196 fps=4.1 q=44.0 size=       1KiB time=00:00:03.25 bitrate=   1.8kbits/s speed=0.0676x elapsed=0:00:48.10    \nframe=  197 fps=4.0 q=40.0 size=       1KiB time=00:00:03.26 bitrate=   1.7kbits/s speed=0.067x elapsed=0:00:48.75    \nframe=  198 fps=4.0 q=44.0 size=       1KiB time=00:00:03.28 bitrate=   1.7kbits/s speed=0.0665x elapsed=0:00:49.38    \nframe=  205 fps=4.1 q=38.0 size=       1KiB time=00:00:03.40 bitrate=   1.7kbits/s speed=0.0681x elapsed=0:00:49.92    \nframe=  205 fps=4.1 q=38.0 size=       1KiB time=00:00:03.40 bitrate=   1.7kbits/s speed=0.0673x elapsed=0:00:50.55    \nframe=  205 fps=4.0 q=38.0 size=       1KiB time=00:00:03.40 bitrate=   1.7kbits/s speed=0.0666x elapsed=0:00:51.07    \nframe=  209 fps=4.1 q=31.0 size=       1KiB time=00:00:03.46 bitrate=   1.6kbits/s speed=0.0672x elapsed=0:00:51.59    \nframe=  213 fps=4.1 q=42.0 size=       1KiB time=00:00:03.53 bitrate=   1.6kbits/s speed=0.0677x elapsed=0:00:52.17    \nframe=  217 fps=4.1 q=38.0 size=       1KiB time=00:00:03.60 bitrate=   1.6kbits/s speed=0.0683x elapsed=0:00:52.69    \nframe=  217 fps=4.1 q=38.0 size=       1KiB time=00:00:03.60 bitrate=   1.6kbits/s speed=0.0677x elapsed=0:00:53.21    \nframe=  217 fps=4.0 q=38.0 size=       1KiB time=00:00:03.60 bitrate=   1.6kbits/s speed=0.067x elapsed=0:00:53.75    \nframe=  221 fps=4.1 q=42.0 size=       1KiB time=00:00:03.66 bitrate=   1.6kbits/s speed=0.0676x elapsed=0:00:54.27    \nframe=  221 fps=4.0 q=42.0 size=       1KiB time=00:00:03.66 bitrate=   1.6kbits/s speed=0.0669x elapsed=0:00:54.80    \nframe=  225 fps=4.1 q=32.0 size=       1KiB time=00:00:03.73 bitrate=   1.5kbits/s speed=0.0675x elapsed=0:00:55.31    \nframe=  229 fps=4.1 q=44.0 size=       1KiB time=00:00:03.80 bitrate=   1.5kbits/s speed=0.068x elapsed=0:00:55.85    \nframe=  233 fps=4.1 q=42.0 size=       1KiB time=00:00:03.86 bitrate=   1.5kbits/s speed=0.0686x elapsed=0:00:56.39    \nframe=  233 fps=4.1 q=42.0 size=       1KiB time=00:00:03.86 bitrate=   1.5kbits/s speed=0.0679x elapsed=0:00:56.91    \nframe=  233 fps=4.1 q=42.0 size=       1KiB time=00:00:03.86 bitrate=   1.5kbits/s speed=0.0673x elapsed=0:00:57.43    \nframe=  237 fps=4.1 q=45.0 size=       1KiB time=00:00:03.93 bitrate=   1.4kbits/s speed=0.0679x elapsed=0:00:57.95    \nframe=  241 fps=4.1 q=33.0 size=       1KiB time=00:00:04.00 bitrate=   1.4kbits/s speed=0.0684x elapsed=0:00:58.47    \nframe=  245 fps=4.2 q=46.0 size=       1KiB time=00:00:04.06 bitrate=   1.4kbits/s speed=0.0689x elapsed=0:00:59.00    \nframe=  249 fps=4.2 q=45.0 size=       1KiB time=00:00:04.13 bitrate=   1.4kbits/s speed=0.0694x elapsed=0:00:59.51    \nframe=  249 fps=4.1 q=45.0 size=       1KiB time=00:00:04.13 bitrate=   1.4kbits/s speed=0.0688x elapsed=0:01:00.03    \nframe=  249 fps=4.1 q=45.0 size=       1KiB time=00:00:04.13 bitrate=   1.4kbits/s speed=0.0682x elapsed=0:01:00.56    \nframe=  253 fps=4.1 q=46.0 size=       1KiB time=00:00:04.20 bitrate=   1.4kbits/s speed=0.0688x elapsed=0:01:01.08    \nframe=  253 fps=4.1 q=46.0 size=       1KiB time=00:00:04.20 bitrate=   1.4kbits/s speed=0.0682x elapsed=0:01:01.60    \nframe=  259 fps=4.2 q=47.0 size=       1KiB time=00:00:04.26 bitrate=   1.3kbits/s speed=0.0687x elapsed=0:01:02.14    \nframe=  265 fps=4.2 q=45.0 size=       1KiB time=00:00:04.40 bitrate=   1.3kbits/s speed=0.0702x elapsed=0:01:02.66    \nframe=  265 fps=4.2 q=45.0 size=       1KiB time=00:00:04.40 bitrate=   1.3kbits/s speed=0.0696x elapsed=0:01:03.19    \nframe=  265 fps=4.2 q=45.0 size=       1KiB time=00:00:04.40 bitrate=   1.3kbits/s speed=0.069x elapsed=0:01:03.73    \nframe=  269 fps=4.2 q=46.0 size=       1KiB time=00:00:04.46 bitrate=   1.3kbits/s speed=0.0695x elapsed=0:01:04.27    \nframe=  269 fps=4.2 q=46.0 size=       1KiB time=00:00:04.46 bitrate=   1.3kbits/s speed=0.0689x elapsed=0:01:04.78    \nframe=  273 fps=4.2 q=36.0 size=       1KiB time=00:00:04.53 bitrate=   1.3kbits/s speed=0.0694x elapsed=0:01:05.32    \nframe=  277 fps=4.2 q=46.0 size=       1KiB time=00:00:04.60 bitrate=   1.2kbits/s speed=0.0699x elapsed=0:01:05.84    \nframe=  281 fps=4.2 q=45.0 size=       1KiB time=00:00:04.66 bitrate=   1.2kbits/s speed=0.0703x elapsed=0:01:06.34    \nframe=  281 fps=4.2 q=45.0 size=       1KiB time=00:00:04.66 bitrate=   1.2kbits/s speed=0.0698x elapsed=0:01:06.88    \nframe=  285 fps=4.2 q=48.0 size=       1KiB time=00:00:04.73 bitrate=   1.2kbits/s speed=0.0702x elapsed=0:01:07.43    \nframe=  285 fps=4.2 q=48.0 size=       1KiB time=00:00:04.73 bitrate=   1.2kbits/s speed=0.0696x elapsed=0:01:07.96    \n[out#0/matroska @ 0000020adfdfcd80] video:3028KiB audio:0KiB subtitle:0KiB other streams:0KiB global headers:0KiB muxing overhead: 0.069890%\nframe=  300 fps=4.4 q=48.0 Lsize=    3030KiB time=00:00:04.98 bitrate=4981.0kbits/s speed=0.073x elapsed=0:01:08.24    \n",
  "seconds": 68.68141961097717,
  "probe_out": {}
}